<svg width="18" height="18" viewBox="0 0 18 18" fill="none" xmlns="http://www.w3.org/2000/svg">
<path fill-rule="evenodd" clip-rule="evenodd" d="M0 0V1.8H1.8L5.04 8.631L3.825 10.836C3.681 11.088 3.6 11.385 3.6 11.7C3.6 12.69 4.41 13.5 5.4 13.5H16.2V11.7H5.778C5.652 11.7 5.553 11.601 5.553 11.475L5.58 11.367L6.39 9.9H13.095C13.77 9.9 14.364 9.531 14.67 8.973L17.892 3.132C17.964 3.006 18 2.853 18 2.7C18 2.205 17.595 1.8 17.1 1.8H3.789L2.943 0H0ZM5.39549 14.4C4.40301 14.4 3.6 15.21 3.6 16.2C3.6 17.19 4.40301 18 5.39549 18C6.38797 18 7.2 17.19 7.2 16.2C7.2 15.21 6.38797 14.4 5.39549 14.4ZM12.6 16.2C12.6 15.21 13.403 14.4 14.3955 14.4C15.388 14.4 16.2 15.21 16.2 16.2C16.2 17.19 15.388 18 14.3955 18C13.403 18 12.6 17.19 12.6 16.2Z" fill="#13D8CC"/>
<mask id="mask0" mask-type="alpha" maskUnits="userSpaceOnUse" x="0" y="0" width="18" height="18">
<path fill-rule="evenodd" clip-rule="evenodd" d="M0 0V1.8H1.8L5.04 8.631L3.825 10.836C3.681 11.088 3.6 11.385 3.6 11.7C3.6 12.69 4.41 13.5 5.4 13.5H16.2V11.7H5.778C5.652 11.7 5.553 11.601 5.553 11.475L5.58 11.367L6.39 9.9H13.095C13.77 9.9 14.364 9.531 14.67 8.973L17.892 3.132C17.964 3.006 18 2.853 18 2.7C18 2.205 17.595 1.8 17.1 1.8H3.789L2.943 0H0ZM5.39549 14.4C4.40301 14.4 3.6 15.21 3.6 16.2C3.6 17.19 4.40301 18 5.39549 18C6.38797 18 7.2 17.19 7.2 16.2C7.2 15.21 6.38797 14.4 5.39549 14.4ZM12.6 16.2C12.6 15.21 13.403 14.4 14.3955 14.4C15.388 14.4 16.2 15.21 16.2 16.2C16.2 17.19 15.388 18 14.3955 18C13.403 18 12.6 17.19 12.6 16.2Z" fill="white"/>
</mask>
<g mask="url(#mask0)">
<rect width="18" height="18" fill="#08254E"/>
</g>
</svg>
